<svg width="50" height="53" fill="none" xmlns="http://www.w3.org/2000/svg"><circle cx="25" cy="28" r="25" fill="#68B738"/><g clip-path="url(#clip0_94_6)"><path d="M35.203 0h-.195c-.33.187-.593.474-.75.82a8.028 8.028 0 00-.664 1.757.84.84 0 01-.761.691 3.77 3.77 0 00-2.69 1.948c-.372.661-.69 1.35-.952 2.062-.73 1.897-1.29 3.856-1.98 5.768-.324.872-.339.872-1.316.872-1.168 0-1.085-.18-1.1 1.108 0 .407.123.613.555.593.133 0 .334-.067.385.108.052.175-.123.252-.226.355a4.626 4.626 0 01-2.227 1.258c-.977.263-1.975.47-2.926.789-2.443.82-4.7 1.964-6.46 3.902a14.436 14.436 0 00-2.437 4.041c-1.888 4.454-2.803 9.145-3.513 13.882a97.062 97.062 0 00-.75 6.7C7.102 47.759 7 48.877 7 50h17.141a1.126 1.126 0 00-.118-.66 2.577 2.577 0 00-1.97-1.582c-.36-.083-.401-.191-.18-.475.36-.482.637-1.022.818-1.597.838-2.48 1.162-5.067 1.568-7.63.23-1.956.83-3.85 1.77-5.582a11.126 11.126 0 012.874-3.283c.427-.325.443-.325.515.227.051.366.061.742.087 1.113a48.166 48.166 0 01-.092 7.31 31.866 31.866 0 00-.078 5.67A38.826 38.826 0 0030.503 50h6.84a2.79 2.79 0 00-2.18-2.289 4.62 4.62 0 00-1.934.103c-.309.073-.438 0-.463-.335a29.113 29.113 0 01.514-8.154 91.803 91.803 0 001.574-9.371 9.163 9.163 0 011.172-3.609c.612-1.092 1.147-2.226 1.749-3.324a3.031 3.031 0 00.216-2.676c-.139-.366-.273-.737-.442-1.087-.515-1.005-1.029-2-1.502-3.016-.252-.515-.196-.577.365-.593.838 0 .838 0 .854-.845v-.34c0-.356-.134-.552-.515-.516h-.781c-.355 0-.458-.149-.37-.515a3.217 3.217 0 012.638-2.284 11.291 11.291 0 013.404.222.513.513 0 00.643-.33c.206-.515.432-1.03.664-1.546a.517.517 0 00-.052-.588c-1.646-2.093-3.43-4.046-5.863-5.299a.767.767 0 01-.452-.577 10.123 10.123 0 00-.653-2.144A1.803 1.803 0 0035.203 0z" fill="#000"/></g><defs><clipPath id="clip0_94_6"><path fill="#fff" transform="translate(7)" d="M0 0h36v50H0z"/></clipPath></defs></svg>