<svg xmlns="http://www.w3.org/2000/svg">
  <svg class="desktop-logo" fill="none" viewBox="0 0 71 59">
    <path fill="#FDC305"
      d="M59.9 23.8A25.4 25.4 0 0 0 39.6 8.4 25.8 25.8 0 0 0 16 18a25.3 25.3 0 0 0 16.5 40.7c-.6-2-1.2-4.3-1.7-6.8 1.5 1 3.1 1.8 4.8 2.6l.3 4.5c1.7 0 3.5-.1 5.3-.5v-.7c.3-1.9 1-5.2 1.2-7.4 1.2-1 2.2-2.3 3-3.7l-.1.5c-.6 4.2-1.7 8.7-2.4 10l-.8 1.1a25.7 25.7 0 0 0 19.7-23.7c.2-3.7-.5-7.4-2-10.8Zm-1.5 3.8c-.4.4-1.3.7-1.5-.6a34 34 0 0 1-.2-2.2s-2-3.4-2.6-3.4c-.7 0-5.9 3.4-7.2 5-1.2 1.2-1.4 1.1-1.4 3.4 0 1.7.2 8 0 13l-8 2.1c-2.6.7-5.2 1.3-7.9 1.7l-1-5.8h-.1l-2.6-13s-3.8-1.5-5.2-1.8a3.8 3.8 0 0 0-4 .6 5 5 0 0 0-1.7 3.8l.5 1.4c0 .5-1.2.5-2 .5s-1-1.5-.3-3.1a22.5 22.5 0 0 1 3.9-6.6s.1-.4 1.2-.3l7.3.5v-2.3A144 144 0 0 1 46 19.2V21c2.6-1.2 5.3-1.8 8.1-2a1 1 0 0 1 .8.4l2.7 3.4 1.8 3-.9 1.8Z" />
    <path fill="#F06351"
      d="m56.5 21.5 1 1.3 1.8 3c-.2.6-.5 1.2-.9 1.7-.4.4-1.3.7-1.5-.6l-.2-2.1s-2-3.4-2.6-3.4c-.7 0-5.9 3.4-7.2 5-1.2 1.2-1.4 1.1-1.4 3.4 0 1.4.2 6.6.1 11.1 1.8.2 4.5.7 5.3 1.9 0 0-.3-7.2 7.8-3.4 0 0 .3-9.7 11.5-7.3-3.8-4.4-8.5-8-13.7-10.6ZM46 19.2c0-5.5-.5-11-1.5-16.4 0 0-.1-1.3-.8-.2a14 14 0 0 0-1.2 4c-4.3-.3-8.6-.2-12.9.3-.8-2.8-2.2-4-2.8-3.7-.7.4-.8 3.3-.8 3.3l-.3 14a144 144 0 0 1 20.2-1.3Z" />
    <path fill="#E55645"
      d="m45.4 46.7.2-4-8.2 2.2c-2.5.7-5.1 1.3-7.8 1.7l1.2 5v.3c1.5 1 3.1 1.8 4.8 2.5 2.4-1.1 4.7-2.5 6.9-4 1.1-1 2-2.3 2.9-3.7Z" />
    <path fill="#000"
      d="m32 16 1.4 1c.4.2.6.4.6.6 0 .2-.2.3-.6.3-.4 0-1 0-1-.2s.6 0 1 0h.2A8 8 0 0 1 32 16ZM39.5 16.2l-1 1.3c-.2 0-.3.4.1.3l1.2-.3c.1 0 0-.2-.1-.1h-1l.9-1.2s0-.1-.1 0ZM36.4 22.3c.4-.2.8-.6 1-1 .3-.7 0-1-.4-1-.6-.1-1.2 0-1.7.3-.4.4-.4.7 0 1l1 .7Z" />
    <path fill="#F06351"
      d="M36 23.5a2 2 0 0 1-.5.6c-.2.2-.6.4-1 .4-.5 0-1-.1-1.5-.5a2 2 0 0 1-.5-.4 1 1 0 0 0-.4-.3s.8 4.1 2.6 4.8c1.8.6 2.1-.8 2.2-1.1 0-1.2-.2-2.3-.8-3.3 0-.3 0 0-.1-.2Z" />
    <path fill="#000"
      d="M34.3 24.6a3.5 3.5 0 0 1-2.3-1.4.1.1 0 0 1 0-.2.1.1 0 0 1 .1 0 3.2 3.2 0 0 0 2.2 1.3 2.1 2.1 0 0 0 1.6-1l.1-.2.1.3s.4.7 1 .8c.7 0 1.1-.5 1.7-1.3a.1.1 0 0 1 .2 0 .1.1 0 0 1 0 .1c-.7 1-1.3 1.5-1.9 1.4a1.6 1.6 0 0 1-1.1-.7 2.3 2.3 0 0 1-1.7 1Z" />
    <path fill="#FDC305"
      d="M36.3 38c2 0 3.7-1.7 3.7-3.7s-1.7-3.7-3.7-3.7c-2.1 0-3.8 1.6-3.8 3.7 0 2 1.7 3.7 3.8 3.7Z" />
    <path fill="#111"
      d="m41.2 31.2-3.1 1.3 1.2-5.5-7.5 9.6 3-1.3-1 5.6 7.4-9.7ZM33.8 35l4.2-5.3-.8 4 2-.9-4.2 5.4.8-4-2 .8ZM32.4 33.6c.7 0 1.2-.5 1.2-1.1 0-.6-.5-1.1-1.2-1.1-.6 0-1 .5-1 1 0 .7.4 1.2 1 1.2ZM39 37.6c.4 0 .8-.3.8-.8 0-.4-.4-.8-.8-.8-.5 0-.8.4-.8.8 0 .5.3.8.8.8ZM40 35.5c.1 0 .3-.2.3-.4s-.2-.3-.4-.3-.3.1-.3.3c0 .2.1.4.3.4Z" />
    <path fill="#F06351"
      d="M45.9 21a57.2 57.2 0 0 0-5.1 5.2 31.8 31.8 0 0 1-5.3 4.8c-.2-.5-1.6-1.5-1.6-1.5s-3.2-2.1-5.2-3.8l-3.2-3h-2c2.9 4.1 7.1 7.2 12 8.7.9-.2 3.3-1.9 5.1-3.3 2.1-1.8 4.1-3.7 6-5.8.5-.6.9-1.3 1.1-2L46 21Z" />
    <path fill="#FDC305"
      d="m65.2 3.5-8.4 9.3-1.3-2L63.7 0l1.5 3.5ZM62.7 17.1l5.5-4-.8-3.8-5.4 4.8.7 3ZM60 49l6 3.1 3-2.3-6.6-2.7-2.5 1.9ZM2 6l3-3.4 9.3 9-1.2 2.2L1.9 5.9ZM7.4 16.1l-4.7-3-2.4 3.8 5.1 2.4 2-3.2ZM14 52.1l-4.6 3.3 2.8 3.6 4-4-2.3-2.9Z" />
    <path fill="#F06351"
      d="M26 27.8S22 26.3 20.6 26a3.8 3.8 0 0 0-4 .6 5 5 0 0 0-1.7 3.8l.5 1.4c0 .5-1.2.5-2 .5s-1-1.5-.3-3.1c.5-1.3 1-2.6 1.8-3.7-5.4 2.8-15 9.3-15 9.3 2.7-.2 5.5-.1 8.2.2 5.2.5 5 4.6 5 4.6a39 39 0 0 1 5.6-1c2.1-.2 2.3 2 2.3 2l.5 3.9c.8-.9 1.7-1.7 2.7-2.4a6 6 0 0 1 4.4-1.3l-2.8-13Z" />
  </svg>
  <svg class="tablet-logo" fill="none" viewBox="0 0 61 51">
    <path fill="#FDC305"
      d="M51.6 19.9A22.2 22.2 0 0 0 34 6.4a21.9 21.9 0 0 0-20.3 8.4A22.4 22.4 0 0 0 28 50.4l-1.5-6c1.4 1 2.7 1.7 4.1 2.3l.3 4c1.5 0 3-.1 4.6-.4v-.7c.2-1.6 1-4.5 1-6.4 1-1 1.9-2 2.6-3.3v.4c-.6 3.7-1.6 7.7-2.2 8.8l-.7 1a22 22 0 0 0 17-20.8c.2-3.2-.4-6.5-1.6-9.4ZM50.3 23c-.4.4-1.1.7-1.3-.5l-.1-1.9s-1.7-3-2.3-3c-.6 0-5 3-6.2 4.4-1 1-1.2 1-1.2 3 0 1.5.2 7 0 11.4l-7 1.8c-2.2.7-4.4 1.2-6.7 1.5l-.8-5h-.1l-2.3-11.5-4.5-1.6a3.2 3.2 0 0 0-3.4.6 4.4 4.4 0 0 0-1.5 3.3l.4 1.3c0 .4-1 .4-1.7.4s-.8-1.3-.2-2.8a19.9 19.9 0 0 1 3.3-5.7s.1-.3 1-.2l6.4.4v-2a122 122 0 0 1 17.4-1.2v1.6c2.2-1 4.6-1.6 7-1.7a.8.8 0 0 1 .7.3l2.3 3 1.6 2.5c-.2.6-.4 1.2-.8 1.6Z" />
    <path fill="#F06351"
      d="m48.6 17.8.9 1.2 1.6 2.6c-.2.5-.4 1-.8 1.5-.3.4-1.1.6-1.3-.5l-.1-1.9s-1.7-3-2.3-3c-.6 0-5 3-6.2 4.4-1 1-1.2 1-1.2 3l.1 9.7c1.6.2 3.8.6 4.5 1.7 0 0-.2-6.3 6.8-3 0 0 .2-8.5 9.8-6.3-3.2-4-7.2-7-11.8-9.4ZM39.6 15.8c0-4.8-.4-9.6-1.2-14.3 0 0-.2-1.2-.8-.3-.5 1.1-.9 2.3-1 3.5-3.7-.2-7.4-.1-11 .3-.8-2.4-2-3.5-2.6-3.2-.5.3-.6 2.9-.6 2.9L22.1 17a122 122 0 0 1 17.5-1.2Z" />
    <path fill="#E55645"
      d="M39 40c.2-1 .2-2.2.3-3.6l-7 1.9c-2.3.7-4.5 1.2-6.8 1.5l1 4.4v.3c1.4.8 2.7 1.6 4.1 2.2 2.1-1 4.1-2.2 6-3.6 1-.9 1.8-2 2.5-3.2Z" />
    <path fill="#000"
      d="m27.6 13 1.2.9.5.5c0 .2-.2.3-.5.3l-.9-.2c0-.1.5 0 .8 0h.3a7 7 0 0 1-1.4-1.4ZM34 13.2l-1 1.2s0 .2.3.2a7 7 0 0 0 1-.2l-.1-.2-.9.1.8-1.1s0-.1 0 0ZM31.3 18.5a2 2 0 0 0 1-.9c.2-.5 0-.8-.4-.8-.5-.1-1 0-1.5.3-.4.3-.3.6 0 .8.3.3.6.4 1 .6Z" />
    <path fill="#F06351"
      d="M31 19.6c0 .2-.2.4-.4.5-.2.2-.5.3-.8.3-.5 0-1 0-1.4-.3l-.4-.4-.3-.2s.6 3.5 2.2 4.1c1.5.6 1.8-.7 1.9-1 0-1-.2-2-.7-2.8v-.2Z" />
    <path fill="#000"
      d="M29.5 20.6a3 3 0 0 1-2-1.3.1.1 0 0 1 0-.1.1.1 0 0 1 .1 0 2.8 2.8 0 0 0 2 1.1 1.8 1.8 0 0 0 1.3-.9l.1-.1.1.2s.4.6.9.7c.5 0 1-.4 1.4-1.2h.2a.1.1 0 0 1 0 .2c-.6.8-1.1 1.2-1.6 1.2a1.3 1.3 0 0 1-1-.6 2 2 0 0 1-1.5.8Z" />
    <path fill="#FDC305"
      d="M31.2 32.3c1.8 0 3.3-1.5 3.3-3.3 0-1.8-1.5-3.2-3.3-3.2A3.2 3.2 0 0 0 28 29c0 1.8 1.5 3.3 3.2 3.3Z" />
    <path fill="#111"
      d="m35.5 26.4-2.7 1.1 1-4.9-6.4 8.5L30 30l-1 4.9 6.5-8.5Zm-6.3 3.3 3.5-4.7-.7 3.5 1.8-.7-3.7 4.7.7-3.5-1.6.7ZM28 28.4c.5 0 1-.4 1-1 0-.5-.5-1-1-1a1 1 0 0 0-1 1c0 .6.4 1 1 1ZM33.6 32c.3 0 .6-.4.6-.7 0-.4-.3-.7-.6-.7-.4 0-.7.3-.7.7 0 .3.3.6.7.6ZM34.4 30c.2 0 .3 0 .3-.2s-.1-.3-.3-.3c-.2 0-.3 0-.3.3 0 .1.1.3.3.3Z" />
    <path fill="#F06351"
      d="m39.5 17.4-4.4 4.5c-1.3 1.6-2.9 3-4.5 4.3-.2-.5-1.4-1.3-1.4-1.3l-4.5-3.4c-1-.8-1.9-1.7-2.7-2.6h-1.7c2.4 3.6 6 6.3 10.3 7.6.7-.1 2.8-1.6 4.4-2.9 1.8-1.5 3.5-3.3 5.1-5 .5-.6.8-1.2 1-1.8l-1.6.6ZM22.3 23.3l-4.5-1.6a3.2 3.2 0 0 0-3.4.6 4.4 4.4 0 0 0-1.5 3.3l.4 1.3c0 .4-1 .4-1.7.4s-.8-1.3-.2-2.8c.4-1 .9-2.2 1.5-3.2A172 172 0 0 0 0 29.5c2.4-.2 4.7-.1 7 .2 4.6.4 4.4 4 4.4 4a33 33 0 0 1 4.8-1c1.8 0 2 2 2 2l.4 3.3c.7-.8 1.5-1.5 2.3-2 1-1 2.4-1.4 3.8-1.2l-2.4-11.5Z" />
  </svg>
  <svg class="mobile-logo" fill="none" viewBox="0 0 35 38">
    <path fill="#FDC305"
      d="M7 20.7v-2.2c6.6-1 13.3-1.4 20-1.4V19c2-.8 4-1.4 6-1.8a16.7 16.7 0 0 0-32 3.3l6 .3ZM28 24.2c-1 1.3-1.3 1.2-1.3 3.5v9.2a16.6 16.6 0 0 0 7.1-17c-2 1.2-4 2.7-5.7 4.3ZM7.2 25.7 2 24l-1.2-.3a16.6 16.6 0 0 0 8.7 14L7.2 25.7Z" />
    <path fill="#F06351"
      d="M27.1 17.1c0-5.5-.4-11-1.4-16.4 0 0-.1-1.3-.9-.3-.5 1.3-1 2.6-1.2 4-4.2-.3-8.5-.2-12.7.3C10 2 8.7.7 8 1c-.6.3-.7 3.3-.7 3.3L7 18.4c6.7-.9 13.4-1.3 20.1-1.3Z" />
    <path fill="#000"
      d="m13.3 14 1.4 1c.4.2.6.3.6.5s-.3.3-.7.3c-.3 0-.9 0-1-.2H15c-.6-.5-1.2-1-1.6-1.6ZM20.7 14.1l-1 1.3c0 .1-.2.4.1.3l1.2-.3c.2 0 .1-.1 0-.1h-1l.8-1.2s0-.1 0 0ZM17.6 20.2c.5-.2.8-.6 1-1 .4-.6 0-1-.4-1-.6-.1-1.2 0-1.7.3-.4.4-.3.8 0 1l1 .7Z" />
    <path fill="#F06351"
      d="M17.2 21.4a2 2 0 0 1-.5.7c-.3.2-.6.3-1 .3-.5 0-1 0-1.4-.4l-.6-.4a1 1 0 0 0-.3-.3s.7 4.1 2.5 4.8c1.9.6 2.2-.8 2.2-1.2.1-1.1-.2-2.2-.8-3.2l-.1-.3Z" />
    <path fill="#000"
      d="M15.6 22.6a3.4 3.4 0 0 1-2.4-1.5.1.1 0 0 1 0-.1.1.1 0 0 1 .2 0c.5.7 1.3 1.1 2.1 1.3a2 2 0 0 0 1.7-1l.1-.2.1.2s.4.8 1 .8 1-.4 1.6-1.3a.1.1 0 0 1 .2 0 .2.2 0 0 1 0 .2c-.6 1-1.2 1.4-1.8 1.4a1.6 1.6 0 0 1-1.1-.8 2.3 2.3 0 0 1-1.7 1Z" />
    <path fill="#F06351"
      d="M27 19a58.6 58.6 0 0 0-5 5.1 31.6 31.6 0 0 1-5.3 4.9c-.2-.5-1.6-1.5-1.6-1.5s-3.1-2.1-5.2-3.8l-3.1-3-2-.1c2.9 4.2 7.1 7.3 12 8.8.9-.2 3.3-1.9 5-3.3 2.2-1.8 4.2-3.8 6-5.9.5-.6.9-1.3 1.1-2l-1.8.7Z" />
  </svg>
  <style>
    .tablet-logo {
      display: none;
    }

    .desktop-logo {
      display: none;
    }

    @media (min-width: 61px) {
      .mobile-logo {
        display: none;
      }

      .tablet-logo {
        display: block;
      }
    }

    @media (min-width: 71px) {
      .desktop-logo {
        display: block;
      }

      .tablet-logo {
        display: none;
      }

      .mobile-logo {
        display: none;
      }
    }
  </style>

</svg>
