<svg fill="none" viewBox="0 0 35 38" xmlns="http://www.w3.org/2000/svg">
  <path fill="#FDC305"
    d="M7 20.7v-2.2c6.6-1 13.3-1.4 20-1.4V19c2-.8 4-1.4 6-1.8a16.7 16.7 0 0 0-32 3.3l6 .3ZM28 24.2c-1 1.3-1.3 1.2-1.3 3.5v9.2a16.6 16.6 0 0 0 7.1-17c-2 1.2-4 2.7-5.7 4.3ZM7.2 25.7 2 24l-1.2-.3a16.6 16.6 0 0 0 8.7 14L7.2 25.7Z" />
  <path fill="#F06351"
    d="M27.1 17.1c0-5.5-.4-11-1.4-16.4 0 0-.1-1.3-.9-.3-.5 1.3-1 2.6-1.2 4-4.2-.3-8.5-.2-12.7.3C10 2 8.7.7 8 1c-.6.3-.7 3.3-.7 3.3L7 18.4c6.7-.9 13.4-1.3 20.1-1.3Z" />
  <path fill="#000"
    d="m13.3 14 1.4 1c.4.2.6.3.6.5s-.3.3-.7.3c-.3 0-.9 0-1-.2H15c-.6-.5-1.2-1-1.6-1.6ZM20.7 14.1l-1 1.3c0 .1-.2.4.1.3l1.2-.3c.2 0 .1-.1 0-.1h-1l.8-1.2s0-.1 0 0ZM17.6 20.2c.5-.2.8-.6 1-1 .4-.6 0-1-.4-1-.6-.1-1.2 0-1.7.3-.4.4-.3.8 0 1l1 .7Z" />
  <path fill="#F06351"
    d="M17.2 21.4a2 2 0 0 1-.5.7c-.3.2-.6.3-1 .3-.5 0-1 0-1.4-.4l-.6-.4a1 1 0 0 0-.3-.3s.7 4.1 2.5 4.8c1.9.6 2.2-.8 2.2-1.2.1-1.1-.2-2.2-.8-3.2l-.1-.3Z" />
  <path fill="#000"
    d="M15.6 22.6a3.4 3.4 0 0 1-2.4-1.5.1.1 0 0 1 0-.1.1.1 0 0 1 .2 0c.5.7 1.3 1.1 2.1 1.3a2 2 0 0 0 1.7-1l.1-.2.1.2s.4.8 1 .8 1-.4 1.6-1.3a.1.1 0 0 1 .2 0 .2.2 0 0 1 0 .2c-.6 1-1.2 1.4-1.8 1.4a1.6 1.6 0 0 1-1.1-.8 2.3 2.3 0 0 1-1.7 1Z" />
  <path fill="#F06351"
    d="M27 19a58.6 58.6 0 0 0-5 5.1 31.6 31.6 0 0 1-5.3 4.9c-.2-.5-1.6-1.5-1.6-1.5s-3.1-2.1-5.2-3.8l-3.1-3-2-.1c2.9 4.2 7.1 7.3 12 8.8.9-.2 3.3-1.9 5-3.3 2.2-1.8 4.2-3.8 6-5.9.5-.6.9-1.3 1.1-2l-1.8.7Z" />
</svg>
